<svg width="431" height="647" fill="none" xmlns="http://www.w3.org/2000/svg"><path fill="#424434" d="M0 0h431v647H0z"/><path d="M143.102 570.893c-55.789-55.789-55.789-146.233 0-202.022 55.789-55.789 146.233-55.789 202.022 0 55.789 55.789 55.789 146.233 0 202.022-55.778 55.778-146.233 55.778-202.022 0ZM355.065 358.93c-58.573-58.573-153.546-58.573-212.131 0-58.584 58.574-58.573 153.546 0 212.131 58.574 58.585 153.546 58.573 212.131 0 58.585-58.574 58.574-153.557 0-212.131Z" fill="#F9C350"/><path d="M143.426 570.558c-50.6-50.601-50.6-132.646 0-183.247 50.601-50.6 132.646-50.6 183.247 0 50.6 50.601 50.6 132.646 0 183.247-50.601 50.6-132.646 50.6-183.247 0ZM335.674 378.32c-53.127-53.127-139.277-53.127-192.404 0-53.128 53.128-53.128 139.278 0 192.405 53.127 53.128 139.277 53.128 192.404 0 53.128-53.127 53.128-139.277 0-192.405Z" fill="#F9C350"/><path d="M143.762 570.233c-45.893-45.893-45.893-120.312 0-166.204 45.893-45.893 120.312-45.893 166.204 0 45.893 45.892 45.893 120.311 0 166.204-45.892 45.893-120.311 45.893-166.204 0Zm174.345-174.356c-48.196-48.197-126.328-48.197-174.513 0-48.185 48.196-48.196 126.328 0 174.513s126.328 48.196 174.513 0c48.185-48.197 48.196-126.317 0-174.513Z" fill="#F9C350"/><path d="M144.086 569.909c-41.632-41.632-41.632-109.129 0-150.75 41.632-41.633 109.129-41.633 150.75 0 41.621 41.632 41.632 109.129 0 150.75-41.621 41.632-109.118 41.632-150.75 0Zm158.131-158.131c-43.713-43.712-114.587-43.712-158.288 0-43.701 43.712-43.712 114.587 0 158.288 43.712 43.7 114.587 43.712 158.288 0 43.701-43.713 43.712-114.576 0-158.288Z" fill="#F9C350"/><path d="M144.411 569.573c-37.763-37.763-37.763-98.975 0-136.739 37.763-37.763 98.976-37.763 136.739 0 37.763 37.764 37.763 98.976 0 136.739-37.752 37.763-98.976 37.763-136.739 0ZM287.826 426.17c-39.642-39.642-103.93-39.642-143.572 0-39.653 39.653-39.653 103.929 0 143.571 39.642 39.653 103.93 39.653 143.572 0 39.641-39.642 39.641-103.93 0-143.571Z" fill="#F9C350"/><path d="M144.735 569.249c-34.252-34.252-34.252-89.773 0-124.025 34.252-34.251 89.773-34.251 124.024 0 34.252 34.252 34.252 89.784 0 124.025-34.24 34.251-89.772 34.251-124.024 0Zm130.074-130.063c-35.963-35.963-94.268-35.963-130.231 0-35.962 35.963-35.962 94.268 0 130.23 35.963 35.963 94.268 35.963 130.231 0 35.952-35.962 35.952-94.267 0-130.23Z" fill="#F9C350"/><path d="M268.591 445.404c31.065 31.064 31.065 81.43 0 112.495-31.065 31.065-81.431 31.065-112.495 0-31.065-31.065-31.065-81.431 0-112.495 31.064-31.065 81.43-31.065 112.495 0ZM150.627 563.356c32.62 32.619 85.501 32.619 118.12 0 32.62-32.619 32.62-85.501 0-118.12-32.619-32.619-85.5-32.619-118.12 0-32.619 32.619-32.619 85.512 0 118.12Z" fill="#F9C350"/><path d="M268.255 445.728c28.18 28.18 28.18 73.86 0 102.04-28.179 28.179-73.86 28.179-102.039 0-28.18-28.18-28.18-73.86 0-102.04 28.179-28.169 73.871-28.169 102.039 0ZM161.284 552.71c29.589 29.589 77.55 29.589 107.139 0 29.589-29.588 29.589-77.55 0-107.139-29.589-29.588-77.55-29.588-107.139 0-29.588 29.589-29.588 77.551 0 107.139Z" fill="#F9C350"/><path d="M267.932 446.063c25.552 25.552 25.552 66.994 0 92.545-25.563 25.552-66.994 25.552-92.546 0-25.552-25.551-25.552-66.993 0-92.545 25.552-25.563 66.994-25.563 92.546 0Zm-97.019 97.007c26.838 26.838 70.337 26.838 97.175 0 26.838-26.838 26.838-70.337 0-97.175-26.838-26.838-70.337-26.838-97.175 0-26.827 26.838-26.827 70.349 0 97.175Z" fill="#F9C350"/><path d="M267.608 446.387c23.181 23.182 23.181 60.766 0 83.947-23.181 23.181-60.766 23.181-83.947 0-23.181-23.181-23.181-60.765 0-83.947 23.181-23.181 60.766-23.181 83.947 0Zm-87.984 87.984c24.344 24.344 63.807 24.344 88.14 0 24.344-24.344 24.344-63.807 0-88.14-24.344-24.344-63.807-24.344-88.14 0-24.344 24.333-24.344 63.796 0 88.14Z" fill="#F9C350"/><path d="M267.272 446.712c21.023 21.023 21.023 55.118 0 76.141-21.023 21.023-55.118 21.023-76.141 0-21.023-21.023-21.023-55.118 0-76.141 21.034-21.023 55.118-21.023 76.141 0Zm-79.775 79.787c22.074 22.074 57.869 22.074 79.943 0 22.074-22.074 22.074-57.869 0-79.943-22.074-22.075-57.869-22.075-79.943 0-22.086 22.074-22.086 57.869 0 79.943Z" fill="#F9C350"/><path d="M266.947 447.048c19.078 19.066 19.078 49.997 0 69.063-19.066 19.066-49.985 19.066-69.062 0-19.066-19.066-19.066-49.986 0-69.063 19.077-19.077 49.996-19.077 69.062 0Zm-72.35 72.35c20.028 20.028 52.49 20.028 72.518 0s20.028-52.49 0-72.518-52.49-20.028-72.518 0-20.028 52.49 0 72.518Z" fill="#F9C350"/><path d="M266.623 447.372c17.3 17.299 17.3 45.345 0 62.644-17.299 17.299-45.344 17.299-62.644 0-17.299-17.299-17.299-45.345 0-62.644 17.3-17.299 45.345-17.299 62.644 0Zm-65.607 65.607c18.16 18.16 47.615 18.16 65.775 0 18.16-18.16 18.16-47.615 0-65.775-18.16-18.16-47.615-18.16-65.775 0-18.16 18.16-18.171 47.615 0 65.775Z" fill="#F9C350"/><path d="M266.299 447.696c15.689 15.689 15.689 41.129 0 56.818s-41.129 15.689-56.818 0-15.689-41.129 0-56.818 41.129-15.689 56.818 0Zm-59.502 59.491c16.472 16.472 43.187 16.472 59.658 0 16.472-16.472 16.472-43.187 0-59.658-16.471-16.472-43.186-16.472-59.658 0-16.472 16.482-16.472 43.186 0 59.658Z" fill="#F9C350"/><path d="M265.963 448.021c14.236 14.235 14.236 37.304 0 51.539-14.235 14.236-37.304 14.236-51.54 0-14.235-14.235-14.235-37.304 0-51.539 14.236-14.225 37.316-14.225 51.54 0Zm-53.944 53.955c14.94 14.939 39.172 14.939 54.112 0 14.94-14.94 14.94-39.172 0-54.112-14.94-14.94-39.172-14.94-54.112 0-14.939 14.94-14.939 39.161 0 54.112Z" fill="#F9C350"/><path d="M265.639 448.355c12.905 12.905 12.905 33.838 0 46.743-12.904 12.904-33.838 12.904-46.742 0-12.905-12.905-12.905-33.838 0-46.743 12.904-12.905 33.838-12.916 46.742 0Zm-48.912 48.912c13.553 13.553 35.527 13.553 49.08 0 13.553-13.553 13.553-35.527 0-49.08-13.553-13.553-35.527-13.553-49.08 0-13.553 13.553-13.553 35.527 0 49.08Z" fill="#F9C350"/><path d="M265.315 448.681c11.708 11.708 11.708 30.696 0 42.404-11.708 11.708-30.696 11.708-42.404 0-11.708-11.708-11.708-30.696 0-42.404 11.708-11.708 30.696-11.708 42.404 0Zm-44.361 44.349c12.29 12.29 32.228 12.29 44.518 0 12.289-12.289 12.289-32.227 0-44.517-12.29-12.289-32.228-12.289-44.518 0-12.289 12.301-12.289 32.228 0 44.517Z" fill="#F9C350"/><path d="M264.98 449.006c10.623 10.623 10.623 27.833 0 38.456-10.623 10.623-27.833 10.623-38.456 0-10.624-10.623-10.624-27.833 0-38.456 10.623-10.613 27.844-10.613 38.456 0Zm-40.212 40.223c11.149 11.149 29.231 11.149 40.38 0 11.149-11.149 11.149-29.231 0-40.38-11.149-11.149-29.231-11.149-40.38 0-11.149 11.149-11.149 29.22 0 40.38Z" fill="#F9C350"/><path d="M264.655 449.329c9.628 9.628 9.628 25.25 0 34.878s-25.25 9.628-34.878 0-9.628-25.25 0-34.878 25.25-9.628 34.878 0ZM228.2 485.795c10.109 10.109 26.514 10.109 36.623 0 10.109-10.109 10.109-26.514 0-36.622-10.109-10.109-26.514-10.109-36.623 0-10.12 10.108-10.12 26.513 0 36.622Z" fill="#F9C350"/><path d="M264.33 449.665c8.734 8.734 8.734 22.902 0 31.635-8.733 8.734-22.901 8.734-31.635 0-8.733-8.733-8.733-22.901 0-31.635 8.734-8.745 22.902-8.745 31.635 0Zm-33.055 33.055c9.17 9.17 24.042 9.17 33.223 0 9.17-9.169 9.17-24.042 0-33.223-9.169-9.169-24.042-9.169-33.223 0-9.181 9.17-9.181 24.043 0 33.223Z" fill="#F9C350"/><path d="M264.007 449.989c7.928 7.928 7.928 20.777 0 28.694-7.929 7.928-20.777 7.928-28.695 0-7.928-7.929-7.928-20.777 0-28.694 7.918-7.929 20.766-7.929 28.695 0Zm-29.969 29.969c8.319 8.319 21.805 8.319 30.136 0 8.32-8.32 8.32-21.817 0-30.137-8.319-8.32-21.817-8.32-30.136 0-8.32 8.32-8.32 21.817 0 30.137Z" fill="#F9C350"/><path d="M263.671 450.313c7.19 7.19 7.19 18.842 0 26.032-7.19 7.191-18.843 7.191-26.033 0-7.19-7.19-7.19-18.842 0-26.032 7.19-7.179 18.854-7.179 26.033 0Zm-27.162 27.173c7.548 7.548 19.781 7.548 27.33 0 7.548-7.548 7.548-19.782 0-27.33-7.549-7.548-19.782-7.548-27.33 0-7.548 7.548-7.548 19.782 0 27.33Z" fill="#F9C350"/><path d="M263.347 450.649c6.52 6.519 6.52 17.087 0 23.606-6.519 6.52-17.086 6.52-23.606 0-6.519-6.519-6.519-17.087 0-23.606 6.52-6.519 17.087-6.519 23.606 0Zm-24.623 24.624c6.843 6.843 17.947 6.843 24.791 0 6.844-6.844 6.844-17.948 0-24.792-6.844-6.843-17.948-6.843-24.791 0-6.844 6.844-6.844 17.948 0 24.792ZM25.712 30.532c0-1.309.051-1.462.799-2.754l1.071-1.853c.85-1.462 1.36-2.533 2.244-2.686l.476-.085c.119-.102.102-.34-.034-.425-.578.034-1.054.051-1.581.051-.527 0-1.02-.017-1.632-.051-.136.068-.153.306-.034.425l.306.034c.408.051.714.17.714.272 0 .204-.629 1.36-1.105 2.244a64.129 64.129 0 0 1-1.598 2.873c-.663-1.173-1.292-2.516-1.921-3.774-.085-.17-.527-1.139-.527-1.309 0-.136.119-.221.714-.306l.221-.034c.102-.102.102-.374-.051-.425a24.56 24.56 0 0 1-1.819.051c-.816 0-1.428-.017-1.972-.051-.119.068-.136.306-.034.425l.476.085c.51.085.765.17 1.343 1.292l2.006 3.91c.493.952.544 1.173.544 2.108v.867c0 1.819-.034 2.057-1.02 2.159l-.527.051c-.102.102-.068.374.034.425A55.457 55.457 0 0 1 25.032 34c.68 0 1.258.017 2.312.051.102-.051.136-.323.034-.425l-.646-.051c-.918-.068-1.02-.34-1.02-2.159v-.884Zm6.672-3.468c-2.006 0-3.621 1.53-3.621 3.672 0 2.125 1.53 3.502 3.485 3.502 2.125 0 3.587-1.53 3.587-3.655 0-2.091-1.547-3.519-3.451-3.519Zm1.989 3.791c0 1.309-.459 2.873-1.955 2.873s-2.193-1.666-2.193-3.213c0-1.87.833-2.941 1.955-2.941 1.615 0 2.193 1.836 2.193 3.281Zm4.766-2.193c0-.833.017-1.19.05-1.479-.017-.068-.068-.102-.17-.119-.373.136-1.036.289-1.819.306-.119.051-.136.289-.034.374l.205.085c.51.221.51.374.51 1.445v2.839c0 1.377.56 2.125 2.056 2.125 1.004 0 1.837-.561 2.346-.884.102 0 .154.085.154.238v.697a.236.236 0 0 0 .204.119c.578-.323 1.564-.493 2.227-.629.136-.068.118-.408.017-.493a3.221 3.221 0 0 1-.663.085c-.477 0-.528-.51-.528-1.853v-2.856c0-.629.017-1.156.051-1.479-.017-.068-.067-.102-.152-.119-.375.17-1.31.289-1.99.306-.136.068-.136.306-.017.374l.221.085c.51.204.63.238.63 1.343v2.788c0 .527-.12.782-.34.986-.375.323-.919.51-1.378.51-1.291 0-1.58-.782-1.58-1.955v-2.839Zm-17.133 22.55c-1.088.391-1.411.782-1.411 1.445 0 .476.204.901.527 1.19.289.255.697.391 1.19.391.476 0 .85-.221 1.224-.425.34-.187.544-.34.663-.34.102 0 .204.136.272.238.289.374.697.527 1.105.527.833 0 1.428-.663 1.428-.748 0-.119-.051-.221-.119-.221-.051 0-.136.068-.221.119a.977.977 0 0 1-.425.102c-.663 0-.816-.697-.782-1.479l.102-2.958c.051-1.275-.544-1.989-1.768-1.989-1.241 0-3.162 1.207-3.162 2.091 0 .153.085.238.238.238.255 0 .714-.119.969-.323.136-.102.153-.306.17-.578.034-.527.612-.765 1.088-.765 1.054 0 1.258.85 1.241 1.479l-.017.782c0 .255-.034.408-.289.493l-2.023.731Zm-.102 1.241c0-.663.493-.918 1.496-1.258.306-.102.595-.17.697-.17.102 0 .17.034.17.221l-.034 1.003c-.017.357-.017.595-.221.799-.17.17-.697.425-1.037.425-.867 0-1.071-.731-1.071-1.02Zm6.635-.357c0 1.224-.017 1.394-.646 1.479l-.357.051c-.119.085-.085.374.034.425.476-.034.986-.051 1.598-.051.595 0 1.088.017 1.547.051.119-.051.153-.34.034-.425l-.306-.051c-.612-.102-.646-.255-.646-1.479v-2.601c0-.493.034-.731.255-1.02.238-.323.799-.595 1.445-.595 1.156 0 1.598.714 1.598 1.683v2.533c0 1.224-.017 1.377-.646 1.479l-.323.051c-.119.085-.085.374.034.425.459-.034.969-.051 1.581-.051.595 0 1.088.017 1.598.051.119-.051.153-.34.034-.425l-.374-.051c-.612-.085-.646-.255-.646-1.479v-2.924c0-1.139-.578-2.108-1.989-2.108-.867 0-1.666.425-2.38.867-.119 0-.187-.085-.187-.187 0-.153 0-.408.034-.799-.034-.085-.119-.119-.187-.119-.34.255-1.309.697-1.7.833-.085.051-.085.238-.017.306l.153.102c.459.306.459.391.459 1.054v2.975Zm14.474-8.041c0-.748.034-1.598.05-2.108a.187.187 0 0 0-.17-.102c-.611.323-1.41.578-1.835.714-.085.051-.085.289 0 .34l.17.102c.51.306.527.408.527 1.411v2.567c0 .136-.017.238-.102.238-.187-.068-.561-.153-1.14-.153-2.311 0-4.113 1.53-4.113 3.91 0 1.785 1.258 3.264 3.145 3.264.816 0 1.394-.272 2.142-.782h.068c.034.068.034.272.034.527v.289c0 .085.085.136.187.136.476-.187 1.53-.442 2.244-.544.153-.085.136-.51.017-.544-.255.085-.544.17-.731.17-.476 0-.493-.629-.493-1.972v-7.463Zm-1.258 8.262c0 .272-.017.527-.12.629-.271.272-.85.476-1.308.476-1.666 0-2.533-1.462-2.533-3.009 0-1.479.799-2.822 2.346-2.822.663 0 1.173.357 1.428.714.119.17.187.323.187.663v3.349Zm12.412-1.785c0-1.309.051-1.462.8-2.754l1.07-1.853c.85-1.462 1.36-2.533 2.244-2.686l.476-.085c.12-.102.102-.34-.034-.425-.578.034-1.054.051-1.58.051-.528 0-1.02-.017-1.633-.051-.136.068-.153.306-.034.425l.306.034c.408.051.714.17.714.272 0 .204-.629 1.36-1.105 2.244a64.129 64.129 0 0 1-1.598 2.873c-.663-1.173-1.292-2.516-1.92-3.774-.086-.17-.528-1.139-.528-1.309 0-.136.12-.221.714-.306l.221-.034c.102-.102.102-.374-.05-.425a24.56 24.56 0 0 1-1.82.051c-.816 0-1.428-.017-1.972-.051-.119.068-.136.306-.034.425l.476.085c.51.085.765.17 1.343 1.292l2.006 3.91c.493.952.544 1.173.544 2.108v.867c0 1.819-.034 2.057-1.02 2.159l-.527.051c-.102.102-.068.374.034.425A55.457 55.457 0 0 1 53.487 54c.68 0 1.258.017 2.312.051.102-.051.136-.323.034-.425l-.646-.051c-.918-.068-1.02-.34-1.02-2.159v-.884Zm6.672-3.468c-2.006 0-3.621 1.53-3.621 3.672 0 2.125 1.53 3.502 3.485 3.502 2.125 0 3.587-1.53 3.587-3.655 0-2.091-1.547-3.519-3.451-3.519Zm1.989 3.791c0 1.309-.459 2.873-1.955 2.873s-2.193-1.666-2.193-3.213c0-1.87.833-2.941 1.955-2.941 1.615 0 2.193 1.836 2.193 3.281Zm4.766-2.193c0-.833.017-1.19.05-1.479-.016-.068-.067-.102-.17-.119-.373.136-1.036.289-1.818.306-.12.051-.136.289-.034.374l.204.085c.51.221.51.374.51 1.445v2.839c0 1.377.56 2.125 2.057 2.125 1.003 0 1.836-.561 2.346-.884.102 0 .153.085.153.238v.697a.236.236 0 0 0 .204.119c.578-.323 1.564-.493 2.227-.629.136-.068.119-.408.017-.493a3.221 3.221 0 0 1-.663.085c-.476 0-.527-.51-.527-1.853v-2.856c0-.629.017-1.156.05-1.479-.016-.068-.067-.102-.152-.119-.374.17-1.31.289-1.99.306-.135.068-.135.306-.016.374l.22.085c.51.204.63.238.63 1.343v2.788c0 .527-.12.782-.34.986-.374.323-.918.51-1.377.51-1.292 0-1.581-.782-1.581-1.955v-2.839Zm7.662 3.434c0 1.224-.017 1.377-.646 1.479l-.323.051c-.12.085-.085.374.034.425.442-.034.952-.051 1.564-.051.595 0 1.088.017 1.887.051.119-.051.153-.34.034-.425l-.612-.051c-.646-.051-.68-.255-.68-1.479v-2.312c0-.578.05-1.071.22-1.309.137-.187.34-.34.613-.34.238 0 .493.102.748.272.119.068.204.119.374.119a.754.754 0 0 0 .73-.782c0-.408-.34-.68-.764-.68-.63 0-1.275.527-1.87 1.02-.034-.017-.051-.068-.051-.153v-.986c0-.068-.051-.102-.136-.119-.425.255-1.326.697-1.717.833-.085.051-.085.238-.017.306l.153.102c.459.306.459.391.459 1.054v2.975ZM22.176 71.45c0 1.785-.034 2.006-1.02 2.125l-.425.051c-.102.119-.068.374.034.425A47.1 47.1 0 0 1 22.89 74c.68 0 1.258.017 2.023.051.102-.051.136-.34.034-.425l-.357-.051c-.986-.136-1.02-.34-1.02-2.125v-2.142c0-.357.034-.374.799-.374.68 0 .952.17 1.207.544.527.765 1.224 1.938 1.666 2.567 1.207 1.717 2.074 2.142 3.519 2.142.323 0 .595-.034.748-.085.085-.068.068-.204-.017-.238a2.035 2.035 0 0 1-1.173-.476c-1.156-.969-2.057-2.329-3.417-4.522-.085-.136-.17-.306-.085-.408.85-.34 2.125-1.224 2.125-2.839 0-1.19-.595-1.955-1.411-2.38-.782-.425-1.785-.51-2.839-.51-1.666 0-2.839.051-3.791.136-.136.068-.136.34-.017.425l.544.068c.697.085.748.374.748 1.989v6.103Zm1.394-7.65c0-.476.051-.544 1.105-.544 1.887 0 2.72 1.275 2.72 2.618 0 1.156-.391 1.751-.85 2.108-.493.374-1.139.442-1.751.442-.867 0-1.122-.034-1.173-.085-.051-.068-.051-.255-.051-.561V63.8Zm12.543 5.848c.714 0 .952-.017 1.003-.119.034-.068.068-.204.068-.442 0-1.02-.952-2.023-2.414-2.023-2.04 0-3.417 1.751-3.417 3.842 0 .748.204 1.547.714 2.21.493.646 1.36 1.122 2.465 1.122.884 0 2.108-.425 2.669-1.581-.017-.153-.136-.255-.306-.204-.527.663-1.003.833-1.564.833-1.82 0-2.822-1.462-2.822-3.179 0-.425.017-.459.459-.459h3.145Zm-3.298-.51c-.12 0-.12-.051-.12-.085.018-.561.885-1.479 1.888-1.479.986 0 1.309.595 1.309 1.071 0 .221-.051.289-.102.323-.136.102-.51.17-1.768.17h-1.207Zm7.845-2.074c-1.292 0-2.312.697-2.312 1.938 0 .935.697 1.53 1.683 2.091.629.357 1.309.782 1.309 1.564 0 .731-.527 1.088-1.139 1.088-.969 0-1.513-.816-1.802-1.751-.085-.102-.306-.085-.391.017-.034.561.068 1.394.204 1.717.425.34 1.02.51 1.819.51 1.258 0 2.448-.646 2.448-1.938 0-1.207-.833-1.785-1.734-2.295-.595-.34-1.309-.714-1.309-1.411 0-.612.425-1.037 1.088-1.037.697 0 1.207.493 1.496 1.241.085.102.34.068.408-.051a3.97 3.97 0 0 0-.272-1.377c-.153-.136-.782-.306-1.496-.306Zm7.688 2.584c.714 0 .952-.017 1.003-.119.034-.068.068-.204.068-.442 0-1.02-.952-2.023-2.414-2.023-2.04 0-3.417 1.751-3.417 3.842 0 .748.204 1.547.714 2.21.493.646 1.36 1.122 2.465 1.122.884 0 2.108-.425 2.67-1.581-.018-.153-.137-.255-.307-.204-.527.663-1.003.833-1.564.833-1.819 0-2.822-1.462-2.822-3.179 0-.425.017-.459.46-.459h3.144Zm-3.298-.51c-.119 0-.119-.051-.119-.085.017-.561.884-1.479 1.887-1.479.986 0 1.31.595 1.31 1.071 0 .221-.052.289-.103.323-.136.102-.51.17-1.768.17H45.05Zm6.69 2.074c-1.089.391-1.412.782-1.412 1.445 0 .476.204.901.527 1.19.29.255.697.391 1.19.391.476 0 .85-.221 1.224-.425.34-.187.544-.34.663-.34.102 0 .204.136.272.238.29.374.697.527 1.105.527.833 0 1.428-.663 1.428-.748 0-.119-.05-.221-.119-.221-.05 0-.136.068-.22.119a.977.977 0 0 1-.426.102c-.663 0-.816-.697-.782-1.479l.102-2.958c.051-1.275-.544-1.989-1.768-1.989-1.24 0-3.162 1.207-3.162 2.091 0 .153.085.238.238.238.255 0 .714-.119.97-.323.135-.102.152-.306.17-.578.033-.527.611-.765 1.087-.765 1.054 0 1.258.85 1.241 1.479l-.017.782c0 .255-.034.408-.289.493l-2.023.731Zm-.103 1.241c0-.663.493-.918 1.496-1.258.306-.102.595-.17.697-.17.102 0 .17.034.17.221l-.034 1.003c-.017.357-.017.595-.22.799-.17.17-.698.425-1.038.425-.867 0-1.07-.731-1.07-1.02Zm6.635-.357c0 1.224-.017 1.377-.646 1.479l-.323.051c-.119.085-.085.374.034.425.442-.034.952-.051 1.564-.051.595 0 1.088.017 1.887.051.12-.051.153-.34.034-.425l-.612-.051c-.646-.051-.68-.255-.68-1.479v-2.312c0-.578.051-1.071.221-1.309.136-.187.34-.34.612-.34.238 0 .493.102.748.272.12.068.204.119.374.119a.754.754 0 0 0 .731-.782c0-.408-.34-.68-.765-.68-.629 0-1.275.527-1.87 1.02-.034-.017-.05-.068-.05-.153v-.986c0-.068-.052-.102-.137-.119-.425.255-1.326.697-1.717.833-.085.051-.085.238-.017.306l.153.102c.46.306.46.391.46 1.054v2.975Zm8.605-5.032c-2.822 0-4.114 1.955-4.114 3.791 0 1.105.391 1.938.986 2.516.595.578 1.428.867 2.33.867.985 0 2.26-.476 2.838-1.734-.017-.153-.17-.272-.306-.238-.39.578-.9 1.02-1.887 1.02-1.819 0-2.737-1.581-2.737-2.907 0-1.802 1.156-2.737 2.346-2.737.697 0 1.326.442 1.7.901a.297.297 0 0 0 .238.119c.204 0 .374-.323.374-.629 0-.289-.119-.561-.255-.68-.459-.204-1.122-.289-1.513-.289Zm3.577 5.032c0 1.224-.017 1.411-.646 1.479l-.425.051c-.119.085-.085.374.034.425a25.661 25.661 0 0 1 3.264 0c.119-.051.153-.357.034-.425l-.357-.051c-.612-.085-.646-.255-.646-1.479V69.24c0-.595.051-.68.357-.935a2.035 2.035 0 0 1 1.326-.459c1.088 0 1.615.731 1.615 1.819v2.431c0 1.224-.017 1.377-.646 1.479l-.34.051c-.119.085-.085.374.034.425.459-.034.969-.051 1.581-.051.595 0 1.088.017 1.7.051.119-.051.153-.34.034-.425l-.459-.051c-.612-.068-.646-.255-.646-1.479v-2.839c0-1.19-.578-2.193-2.193-2.193-.867 0-1.683.408-2.295.884-.051-.034-.068-.17-.068-.323v-3.57c0-.748.034-1.598.051-2.108a.187.187 0 0 0-.17-.102c-.612.323-1.411.578-1.836.714-.085.051-.085.289 0 .34l.17.102c.51.306.527.408.527 1.411v7.684ZM20 90.09v.833h17v-.833H20Zm7.667 22.278c.136.408.221.714.221.901 0 .17-.238.272-.595.306l-.493.051c-.119.085-.102.357.034.425.493-.017 1.139-.051 1.955-.051.765 0 1.36.017 2.057.051.085-.068.119-.34 0-.425l-.459-.051c-.731-.085-.952-.34-1.445-1.802l-2.329-6.834c-.255-.748-.527-1.53-.748-2.278-.034-.119-.153-.153-.255-.153-.187.221-.476.527-.884.646.051.272-.051.595-.289 1.207l-1.734 4.59c-.714 1.904-1.19 3.009-1.496 3.791-.238.612-.612.799-1.02.833l-.561.051c-.102.085-.068.357.034.425.459-.017 1.071-.051 1.632-.051.799.017 1.326.017 1.768.051.153-.068.153-.34.034-.425l-.561-.051c-.408-.034-.493-.136-.493-.34 0-.187.119-.646.374-1.411l.595-1.785c.119-.357.221-.408.646-.408h2.567c.51 0 .578.051.697.425l.748 2.312Zm-3.043-6.783c.187-.51.357-.918.408-1.003h.034c.102.204.255.663.391 1.071l.918 2.771c.153.459.119.527-.374.527H23.91c-.476 0-.493-.017-.357-.408l1.071-2.958Zm15.199 2.431c.153-.102.187-.561-.017-.714h-1.887c-.29 0-.306-.017-.306-.323v-.765c-.068-.119-.272-.119-.357-.085-.17.34-.493.799-.714 1.003-.17.153-.595.374-1.088.527-.068.102-.051.289.05.357h.477c.34 0 .357.034.357.493v3.893c0 1.02.306 1.836 1.768 1.836.867 0 1.479-.425 1.785-.782.034-.102-.034-.289-.17-.289-.051 0-.272.187-.425.238a1.298 1.298 0 0 1-.46.085c-1.121 0-1.24-.901-1.24-1.887v-3.179c0-.357.017-.408.306-.408h1.92Zm2.238 3.196c-1.088.391-1.411.782-1.411 1.445 0 .476.204.901.527 1.19.289.255.697.391 1.19.391.476 0 .85-.221 1.224-.425.34-.187.544-.34.663-.34.102 0 .204.136.272.238.289.374.697.527 1.105.527.833 0 1.428-.663 1.428-.748 0-.119-.051-.221-.12-.221-.05 0-.135.068-.22.119a.977.977 0 0 1-.425.102c-.663 0-.816-.697-.782-1.479l.102-2.958c.05-1.275-.544-1.989-1.768-1.989-1.241 0-3.162 1.207-3.162 2.091 0 .153.085.238.238.238.255 0 .714-.119.969-.323.136-.102.153-.306.17-.578.034-.527.612-.765 1.088-.765 1.054 0 1.258.85 1.24 1.479l-.016.782c0 .255-.034.408-.29.493l-2.022.731Zm-.102 1.241c0-.663.493-.918 1.496-1.258.306-.102.595-.17.697-.17.102 0 .17.034.17.221l-.034 1.003c-.017.357-.017.595-.221.799-.17.17-.697.425-1.037.425-.867 0-1.071-.731-1.071-1.02Zm7.723-8.398c0-.748.034-1.598.05-2.108a.187.187 0 0 0-.17-.102c-.611.323-1.41.578-1.835.714-.085.051-.085.289 0 .34l.17.102c.51.306.527.408.527 1.411v7.684c0 1.224-.017 1.394-.646 1.479l-.391.051c-.12.085-.085.374.034.425.51-.034 1.02-.051 1.632-.051.595 0 1.088.017 1.649.051.119-.051.153-.34.034-.425l-.408-.051c-.612-.085-.646-.255-.646-1.479v-8.041Zm2.942 8.041c0 1.224-.017 1.394-.646 1.479l-.374.051c-.136.085-.102.374.017.425.51-.034 1.02-.051 1.632-.051.595 0 1.088.017 1.649.051.119-.051.153-.34.034-.425l-.408-.051c-.612-.085-.646-.255-.646-1.479v-.935c0-.527.017-.578.323-.578a.69.69 0 0 1 .527.238l1.819 2.108c.22.255.289.374.289.476 0 .102-.17.136-.425.17l-.306.051c-.12.068-.102.357.034.425A26.325 26.325 0 0 1 57.91 114c.544 0 1.122.017 1.615.051.136-.051.153-.34.034-.425l-.238-.034c-.306-.051-.646-.153-.884-.374-.34-.323-.935-.986-1.598-1.734-.578-.646-.85-.969-1.14-1.36-.101-.136-.084-.221.12-.408.306-.289.884-.901 1.547-1.428.442-.357.73-.527 1.07-.595l.545-.102c.102-.085.085-.374-.034-.425-.952.102-1.955.136-2.703.136h-.391c-.153.051-.153.374 0 .425l.408.051c.289.034.374.085.374.17s-.12.272-.595.782l-.697.748c-.46.476-.782.663-1.156.663-.29 0-.306-.034-.306-.255v-5.831c0-.748.034-1.598.05-2.108a.187.187 0 0 0-.17-.102c-.611.323-1.41.578-1.835.714-.085.051-.085.289 0 .34l.17.102c.51.306.527.408.527 1.411v7.684Zm12.23.425c0 .884-.017 1.207-.034 1.445a.187.187 0 0 0 .17.102c.034 0 .051 0 .068-.017.085-.119.221-.255.357-.255.136 0 .357.102.714.221.34.102.816.221 1.445.221 2.278 0 3.91-1.581 3.91-3.842 0-1.87-1.309-3.332-3.247-3.332-.833 0-1.513.306-1.955.561-.102 0-.17-.068-.17-.357v-3.213c0-.748.034-1.513.068-2.108a.187.187 0 0 0-.17-.102c-.646.34-1.462.561-1.853.714-.085.051-.085.289 0 .34l.17.102c.51.306.527.408.527 1.411v8.109Zm1.258-3.485c0-.663.034-.85.204-.969.238-.153.646-.272 1.156-.272 1.683 0 2.584 1.36 2.584 3.111 0 1.462-.629 2.822-2.227 2.822-.544 0-1.003-.204-1.292-.561-.289-.357-.425-.884-.425-1.479v-2.652Zm7.023 9.197c.391 0 .8-.153 1.088-.799a252.14 252.14 0 0 1 2.788-5.95l.953-1.955c.578-1.207.883-1.7 1.445-1.802l.288-.051c.12-.102.102-.357-.034-.425a17.4 17.4 0 0 1-1.291.051c-.442 0-.953-.017-1.496-.051-.136.051-.154.34-.035.425l.528.085c.305.051.407.17.407.289 0 .187-.22.816-.594 1.7l-.579 1.343c-.305.697-.578 1.224-.628 1.258-.069-.034-.391-.935-.493-1.207l-.544-1.564c-.103-.289-.493-1.394-.493-1.598 0-.119.136-.17.374-.221l.424-.085c.12-.085.103-.374-.033-.425a23.472 23.472 0 0 1-3.094 0c-.136.051-.153.34-.052.425l.426.085c.595.119.714.527 1.003 1.326l1.326 3.638c.22.629.288.833.288 1.173 0 .238-.118.595-.17.731-.153.408-.492 1.122-.986 1.887a.616.616 0 0 1-.56.306h-.324c-.373 0-.68.221-.68.68 0 .425.255.731.748.731ZM22.176 131.45c0 1.785-.034 2.006-1.02 2.125l-.425.051c-.102.119-.068.374.034.425A47.1 47.1 0 0 1 22.89 134c.68 0 1.258.017 2.023.051.102-.051.136-.34.034-.425l-.357-.051c-.986-.136-1.02-.34-1.02-2.125v-2.142c0-.357.034-.374.799-.374.68 0 .952.17 1.207.544.527.765 1.224 1.938 1.666 2.567 1.207 1.717 2.074 2.142 3.519 2.142.323 0 .595-.034.748-.085.085-.068.068-.204-.017-.238a2.035 2.035 0 0 1-1.173-.476c-1.156-.969-2.057-2.329-3.417-4.522-.085-.136-.17-.306-.085-.408.85-.34 2.125-1.224 2.125-2.839 0-1.19-.595-1.955-1.411-2.38-.782-.425-1.785-.51-2.839-.51-1.666 0-2.839.051-3.791.136-.136.068-.136.34-.017.425l.544.068c.697.085.748.374.748 1.989v6.103Zm1.394-7.65c0-.476.051-.544 1.105-.544 1.887 0 2.72 1.275 2.72 2.618 0 1.156-.391 1.751-.85 2.108-.493.374-1.139.442-1.751.442-.867 0-1.122-.034-1.173-.085-.051-.068-.051-.255-.051-.561V123.8Zm9.053 8.296c0 1.224-.017 1.394-.646 1.479l-.357.051c-.119.085-.085.374.034.425.476-.034.986-.051 1.598-.051.595 0 1.088.017 1.598.051.119-.051.153-.34.034-.425l-.357-.051c-.612-.085-.646-.255-.646-1.479v-3.06c0-.697.034-1.513.068-2.108-.017-.068-.085-.102-.17-.102-.391.255-1.36.697-1.751.833-.085.051-.085.238-.017.306l.153.102c.459.306.459.391.459 1.054v2.975Zm.561-8.704c-.51 0-.918.357-.918.918 0 .459.34.85.867.85.476 0 .901-.272.901-.884 0-.476-.34-.884-.85-.884Zm6.865 3.672c-2.822 0-4.114 1.955-4.114 3.791 0 1.105.391 1.938.986 2.516.595.578 1.428.867 2.33.867.985 0 2.26-.476 2.838-1.734-.017-.153-.17-.272-.306-.238-.39.578-.9 1.02-1.887 1.02-1.819 0-2.737-1.581-2.737-2.907 0-1.802 1.156-2.737 2.346-2.737.697 0 1.326.442 1.7.901a.297.297 0 0 0 .238.119c.204 0 .374-.323.374-.629 0-.289-.119-.561-.255-.68-.459-.204-1.122-.289-1.513-.289Zm3.577 5.032c0 1.224-.017 1.411-.646 1.479l-.425.051c-.12.085-.085.374.034.425a25.661 25.661 0 0 1 3.264 0c.119-.051.153-.357.034-.425l-.357-.051c-.612-.085-.646-.255-.646-1.479v-2.856c0-.595.05-.68.357-.935a2.035 2.035 0 0 1 1.326-.459c1.088 0 1.615.731 1.615 1.819v2.431c0 1.224-.017 1.377-.646 1.479l-.34.051c-.12.085-.085.374.034.425a21.32 21.32 0 0 1 1.58-.051c.596 0 1.089.017 1.7.051.12-.051.154-.34.035-.425l-.46-.051c-.611-.068-.645-.255-.645-1.479v-2.839c0-1.19-.578-2.193-2.193-2.193-.867 0-1.683.408-2.295.884-.051-.034-.068-.17-.068-.323v-3.57c0-.748.034-1.598.05-2.108a.187.187 0 0 0-.17-.102c-.611.323-1.41.578-1.835.714-.085.051-.085.289 0 .34l.17.102c.51.306.527.408.527 1.411v7.684Zm9.259-.884c-1.088.391-1.411.782-1.411 1.445 0 .476.204.901.527 1.19.289.255.697.391 1.19.391.476 0 .85-.221 1.224-.425.34-.187.544-.34.663-.34.102 0 .204.136.272.238.289.374.697.527 1.105.527.833 0 1.428-.663 1.428-.748 0-.119-.051-.221-.12-.221-.05 0-.135.068-.22.119a.977.977 0 0 1-.425.102c-.663 0-.816-.697-.782-1.479l.102-2.958c.05-1.275-.544-1.989-1.768-1.989-1.241 0-3.162 1.207-3.162 2.091 0 .153.085.238.238.238.255 0 .714-.119.969-.323.136-.102.153-.306.17-.578.034-.527.612-.765 1.088-.765 1.054 0 1.258.85 1.24 1.479l-.016.782c0 .255-.034.408-.29.493l-2.022.731Zm-.102 1.241c0-.663.493-.918 1.496-1.258.306-.102.595-.17.697-.17.102 0 .17.034.17.221l-.034 1.003c-.017.357-.017.595-.221.799-.17.17-.697.425-1.037.425-.867 0-1.071-.731-1.071-1.02Zm6.635-.357c0 1.224-.017 1.377-.646 1.479l-.323.051c-.119.085-.085.374.034.425.442-.034.952-.051 1.564-.051.595 0 1.088.017 1.887.051.119-.051.153-.34.034-.425l-.612-.051c-.646-.051-.68-.255-.68-1.479v-2.312c0-.578.051-1.071.221-1.309.136-.187.34-.34.612-.34.238 0 .493.102.748.272.119.068.204.119.374.119a.754.754 0 0 0 .731-.782c0-.408-.34-.68-.765-.68-.629 0-1.275.527-1.87 1.02-.034-.017-.051-.068-.051-.153v-.986c0-.068-.051-.102-.136-.119-.425.255-1.326.697-1.717.833-.085.051-.085.238-.017.306l.153.102c.459.306.459.391.459 1.054v2.975Zm10.954-8.041c0-.748.034-1.598.051-2.108a.187.187 0 0 0-.17-.102c-.612.323-1.41.578-1.836.714-.085.051-.085.289 0 .34l.17.102c.51.306.527.408.527 1.411v2.567c0 .136-.017.238-.102.238-.187-.068-.56-.153-1.139-.153-2.312 0-4.114 1.53-4.114 3.91 0 1.785 1.258 3.264 3.145 3.264.816 0 1.394-.272 2.142-.782h.068c.034.068.034.272.034.527v.289c0 .085.085.136.187.136.476-.187 1.53-.442 2.244-.544.153-.085.136-.51.017-.544-.255.085-.544.17-.73.17-.477 0-.494-.629-.494-1.972v-7.463Zm-1.258 8.262c0 .272-.017.527-.119.629-.272.272-.85.476-1.309.476-1.666 0-2.533-1.462-2.533-3.009 0-1.479.8-2.822 2.346-2.822.663 0 1.173.357 1.428.714.12.17.187.323.187.663v3.349Zm7.057-9.146c.714.068.918.527 1.241 1.224 1.105 2.363 2.16 4.726 3.247 7.089.221.493.884 2.023 1.173 2.737.086.034.17.051.256.051a.363.363 0 0 0 .204-.051c.492-1.411 1.513-3.587 2.124-4.828.528 1.19 1.514 3.315 2.058 4.828a.543.543 0 0 0 .237.051.363.363 0 0 0 .204-.051 133.5 133.5 0 0 1 2.125-5.219l1.241-2.873c1.02-2.363 1.173-2.873 2.023-2.958l.323-.034c.12-.136.103-.357-.033-.408-.442.034-.935.051-1.581.051-.528 0-.987-.017-1.633-.051-.135.068-.152.255-.016.408l.492.034c.358.017.562.153.562.391 0 .204-.29.935-.51 1.547-.12.306-1.02 2.567-1.36 3.383a133.604 133.604 0 0 1-1.53 3.587c-.561-1.292-1.156-2.567-1.734-3.876-.086-.204-.12-.34-.12-.408 0-.068.069-.238.153-.408.256-.595.97-2.074 1.327-2.703.373-.697.68-1.462 1.393-1.513l.493-.034c.102-.136.085-.357-.034-.408-.39.034-1.07.051-1.631.051-.63 0-1.14-.017-1.599-.051-.119.051-.153.238-.034.408l.51.034c.544.034.63.221.017 1.666-.374.918-.68 1.564-1.002 2.227a179.294 179.294 0 0 1-1.31-2.958c-.323-.765-.306-.884.358-.935l.441-.034c.103-.136.086-.357-.033-.408-.391.034-1.02.051-1.87.051-.68 0-1.327-.017-1.82-.051-.135.068-.152.272-.033.408l.407.034c.578.051.834.408 1.088.935.647 1.36 1.275 2.72 1.87 4.08.085.204.136.357.136.442 0 .085-.118.374-.272.697-.441.952-.9 1.904-1.308 2.754a353.64 353.64 0 0 1-2.942-6.341c-.526-1.207-.883-2.074-.883-2.278 0-.153.204-.255.56-.289l.391-.034c.102-.119.12-.357-.034-.408-.594.034-1.462.051-1.938.051-.526 0-1.291-.017-1.75-.051-.136.068-.153.306-.052.408l.408.034Zm16.046 11.067c.578 0 .952-.391.952-.935s-.374-1.003-.952-1.003c-.544 0-.952.425-.952 1.003 0 .578.459.935.952.935Zm15.657-5.729c.816 0 .85.034.85.544v2.397c0 1.785 0 1.955-1.037 2.125l-.323.051c-.102.102-.068.374.034.425.748-.034 1.36-.051 2.057-.051.663 0 1.241.017 2.057.051.102-.051.136-.357.034-.425l-.408-.051c-.986-.119-1.02-.34-1.02-2.125v-6.12c0-1.785.034-2.04 1.02-2.142l.357-.034c.102-.068.068-.374-.034-.425-.765.034-1.343.051-2.006.051-.697 0-1.275-.017-2.057-.051-.102.051-.136.357-.034.425l.323.034c1.003.102 1.037.357 1.037 2.142v1.955c0 .527-.034.544-.85.544h-4.862c-.816 0-.85-.017-.85-.544v-1.955c0-1.785.034-2.04 1.02-2.142l.323-.034c.102-.068.068-.374-.034-.425-.731.034-1.309.051-1.972.051-.731 0-1.309-.034-2.142-.051-.102.051-.136.357-.034.425l.442.034c.884.068 1.003.357 1.003 2.142v6.12c0 1.785-.034 1.955-.986 2.125l-.29.051c-.101.102-.067.374.035.425.663-.017 1.241-.051 1.972-.051.663 0 1.241.017 2.159.051.102-.051.136-.357.034-.425l-.493-.051c-.952-.102-1.037-.34-1.037-2.125v-2.397c0-.51.034-.544.85-.544h4.862Zm6.32 2.703c-1.088.391-1.411.782-1.411 1.445 0 .476.204.901.527 1.19.289.255.697.391 1.19.391.476 0 .85-.221 1.224-.425.34-.187.544-.34.663-.34.102 0 .204.136.272.238.289.374.697.527 1.105.527.833 0 1.428-.663 1.428-.748 0-.119-.051-.221-.119-.221-.051 0-.136.068-.221.119a.977.977 0 0 1-.425.102c-.663 0-.816-.697-.782-1.479l.102-2.958c.051-1.275-.544-1.989-1.768-1.989-1.241 0-3.162 1.207-3.162 2.091 0 .153.085.238.238.238.255 0 .714-.119.969-.323.136-.102.153-.306.17-.578.034-.527.612-.765 1.088-.765 1.054 0 1.258.85 1.241 1.479l-.017.782c0 .255-.034.408-.289.493l-2.023.731Zm-.102 1.241c0-.663.493-.918 1.496-1.258.306-.102.595-.17.697-.17.102 0 .17.034.17.221l-.034 1.003c-.017.357-.017.595-.221.799-.17.17-.697.425-1.037.425-.867 0-1.071-.731-1.071-1.02Zm15.646-.357c0 1.224-.017 1.377-.646 1.479l-.306.051c-.119.085-.085.374.034.425.476-.034.935-.051 1.547-.051.595 0 1.088.017 1.649.051.119-.051.153-.34.034-.425l-.408-.051c-.612-.085-.646-.255-.646-1.479v-2.924c0-1.173-.663-2.108-2.023-2.108-.799 0-1.632.391-2.312.867-.153.102-.272.17-.425.136-.476-.697-.952-1.003-1.802-1.003-.816 0-1.615.408-2.261.867-.119 0-.187-.085-.187-.187 0-.153 0-.408.034-.799-.034-.085-.119-.119-.187-.119-.34.255-1.309.697-1.7.833-.085.051-.085.238-.017.306l.153.102c.459.306.459.391.459 1.054v2.975c0 1.224-.017 1.394-.646 1.479l-.408.051c-.119.085-.085.374.034.425a24.752 24.752 0 0 1 1.649-.051c.595 0 1.088.017 1.547.051.119-.051.153-.34.034-.425l-.306-.051c-.612-.102-.646-.255-.646-1.479v-2.635c0-.544.085-.765.255-.969.255-.306.731-.612 1.428-.612 1.054 0 1.564.612 1.564 1.751v2.465c0 1.224-.017 1.377-.646 1.479l-.306.051c-.119.085-.085.374.034.425.476-.034.935-.051 1.547-.051.595 0 1.088.017 1.598.051.119-.051.153-.34.034-.425l-.357-.051c-.612-.085-.646-.255-.646-1.479v-2.601c0-.595.051-.765.255-1.02.238-.306.765-.595 1.411-.595 1.071 0 1.581.595 1.581 1.751v2.465Zm13.38 0c0 1.224-.017 1.377-.646 1.479l-.306.051c-.119.085-.085.374.034.425.476-.034.935-.051 1.547-.051.595 0 1.088.017 1.649.051.119-.051.153-.34.034-.425l-.408-.051c-.612-.085-.646-.255-.646-1.479v-2.924c0-1.173-.663-2.108-2.023-2.108-.799 0-1.632.391-2.312.867-.153.102-.272.17-.425.136-.476-.697-.952-1.003-1.802-1.003-.816 0-1.615.408-2.261.867-.119 0-.187-.085-.187-.187 0-.153 0-.408.034-.799-.034-.085-.119-.119-.187-.119-.34.255-1.309.697-1.7.833-.085.051-.085.238-.017.306l.153.102c.459.306.459.391.459 1.054v2.975c0 1.224-.017 1.394-.646 1.479l-.408.051c-.119.085-.085.374.034.425a24.752 24.752 0 0 1 1.649-.051c.595 0 1.088.017 1.547.051.119-.051.153-.34.034-.425l-.306-.051c-.612-.102-.646-.255-.646-1.479v-2.635c0-.544.085-.765.255-.969.255-.306.731-.612 1.428-.612 1.054 0 1.564.612 1.564 1.751v2.465c0 1.224-.017 1.377-.646 1.479l-.306.051c-.119.085-.085.374.034.425.476-.034.935-.051 1.547-.051.595 0 1.088.017 1.598.051.119-.051.153-.34.034-.425l-.357-.051c-.612-.085-.646-.255-.646-1.479v-2.601c0-.595.051-.765.255-1.02.238-.306.765-.595 1.411-.595 1.071 0 1.581.595 1.581 1.751v2.465Zm4.371 0c0 1.224-.017 1.394-.646 1.479l-.357.051c-.119.085-.085.374.034.425.476-.034.986-.051 1.598-.051.595 0 1.088.017 1.598.051.119-.051.153-.34.034-.425l-.357-.051c-.612-.085-.646-.255-.646-1.479v-3.06c0-.697.034-1.513.068-2.108-.017-.068-.085-.102-.17-.102-.391.255-1.36.697-1.751.833-.085.051-.085.238-.017.306l.153.102c.459.306.459.391.459 1.054v2.975Zm.561-8.704c-.51 0-.918.357-.918.918 0 .459.34.85.867.85.476 0 .901-.272.901-.884 0-.476-.34-.884-.85-.884Zm3.805 8.704c0 1.224-.017 1.394-.646 1.479l-.357.051c-.119.085-.085.374.034.425.476-.034.986-.051 1.598-.051.595 0 1.088.017 1.547.051.119-.051.153-.34.034-.425l-.306-.051c-.612-.102-.646-.255-.646-1.479v-2.601c0-.493.034-.731.255-1.02.238-.323.799-.595 1.445-.595 1.156 0 1.598.714 1.598 1.683v2.533c0 1.224-.017 1.377-.646 1.479l-.323.051c-.119.085-.085.374.034.425.459-.034.969-.051 1.581-.051.595 0 1.088.017 1.598.051.119-.051.153-.34.034-.425l-.374-.051c-.612-.085-.646-.255-.646-1.479v-2.924c0-1.139-.578-2.108-1.989-2.108-.867 0-1.666.425-2.38.867-.119 0-.187-.085-.187-.187 0-.153 0-.408.034-.799-.034-.085-.119-.119-.187-.119-.34.255-1.309.697-1.7.833-.085.051-.085.238-.017.306l.153.102c.459.306.459.391.459 1.054v2.975Zm13.471-4.42c-.374 0-.493-.034-1.037-.272a4.243 4.243 0 0 0-1.632-.34c-1.513 0-2.771 1.105-2.771 2.567 0 1.088.697 1.751 1.275 2.057 0 .085-.085.221-.17.323a5.283 5.283 0 0 1-.901.782c-.187.136-.255.204-.255.289 0 .595.578 1.173 1.241 1.343.153.102.017.255-.136.408-.391.391-.867.833-1.156 1.139-.119.136-.187.357-.187.629 0 .85.731 1.972 2.822 1.972 2.21 0 4.233-1.36 4.233-3.213 0-1.7-1.428-1.87-2.38-1.87-.748 0-1.445.051-2.023.051-.799 0-1.19-.323-1.19-.714 0-.493.544-.816.748-.935.204.017.442.051.748.051 2.159 0 2.856-1.53 2.856-2.703 0-.289 0-.578-.034-.867h1.224c.255-.034.289-.612.102-.697h-1.377Zm-1.598 6.868c1.224 0 1.938.442 1.938 1.479 0 .969-1.003 1.819-2.516 1.819-1.547 0-2.278-.765-2.278-1.683 0-.646.408-1.173.816-1.428.238-.153.918-.187 1.462-.187h.578Zm-.918-3.094c-.816 0-1.547-.782-1.547-1.989 0-1.156.612-1.904 1.428-1.904 1.037 0 1.513.969 1.513 2.125 0 1.037-.476 1.768-1.394 1.768ZM20 150.09v.833h17v-.833H20Zm2.176 21.36c0 1.785-.034 1.972-.935 2.125l-.306.051c-.102.102-.068.374.034.425.629-.017 1.207-.051 1.955-.051.714 0 1.547.051 2.04.051 3.06 0 4.522-1.326 4.522-3.298 0-1.819-1.36-2.669-2.278-2.839-.187-.034-.323-.085-.323-.255 1.02-.476 1.734-1.105 1.734-2.329 0-1.088-.561-1.768-1.292-2.125-.765-.391-1.785-.476-2.856-.476-1.581 0-2.737.051-3.655.136-.136.068-.153.323-.017.425l.544.051c.765.068.833.391.833 1.649v6.46Zm1.394-2.771c0-.34.068-.442.986-.442 2.703 0 3.383 1.564 3.383 2.907 0 1.7-1.156 2.38-2.669 2.38-.51 0-1.02-.085-1.343-.476-.323-.374-.357-1.241-.357-1.853v-2.516Zm0-4.879c0-.306.068-.391.238-.442.153-.068.408-.102.782-.102 1.292 0 2.533.629 2.533 2.295 0 1.598-.935 2.108-2.669 2.176-.867.034-.884 0-.884-.476V163.8Zm11.978 5.848c.714 0 .952-.017 1.003-.119.034-.068.068-.204.068-.442 0-1.02-.952-2.023-2.414-2.023-2.04 0-3.417 1.751-3.417 3.842 0 .748.204 1.547.714 2.21.493.646 1.36 1.122 2.465 1.122.884 0 2.108-.425 2.67-1.581-.018-.153-.137-.255-.307-.204-.527.663-1.003.833-1.564.833-1.819 0-2.822-1.462-2.822-3.179 0-.425.017-.459.46-.459h3.144Zm-3.298-.51c-.119 0-.119-.051-.119-.085.017-.561.884-1.479 1.887-1.479.986 0 1.31.595 1.31 1.071 0 .221-.052.289-.103.323-.136.102-.51.17-1.768.17H32.25Zm7.438-5.083c0-.748.034-1.598.05-2.108a.187.187 0 0 0-.17-.102c-.611.323-1.41.578-1.835.714-.085.051-.085.289 0 .34l.17.102c.51.306.527.408.527 1.411v7.684c0 1.224-.017 1.394-.646 1.479l-.391.051c-.12.085-.085.374.034.425.51-.034 1.02-.051 1.632-.051.595 0 1.088.017 1.649.051.119-.051.153-.34.034-.425l-.408-.051c-.612-.085-.646-.255-.646-1.479v-8.041Zm4.2 0c0-.748.034-1.598.05-2.108a.187.187 0 0 0-.17-.102c-.611.323-1.41.578-1.835.714-.085.051-.085.289 0 .34l.17.102c.51.306.527.408.527 1.411v7.684c0 1.224-.017 1.394-.646 1.479l-.391.051c-.12.085-.085.374.034.425.51-.034 1.02-.051 1.632-.051.595 0 1.088.017 1.649.051.119-.051.153-.34.034-.425l-.408-.051c-.612-.085-.646-.255-.646-1.479v-8.041Zm6.172 3.009c-2.822 0-4.114 1.955-4.114 3.791 0 1.105.391 1.938.986 2.516.595.578 1.428.867 2.329.867.986 0 2.261-.476 2.839-1.734-.017-.153-.17-.272-.306-.238-.391.578-.901 1.02-1.887 1.02-1.819 0-2.737-1.581-2.737-2.907 0-1.802 1.156-2.737 2.346-2.737.697 0 1.326.442 1.7.901a.297.297 0 0 0 .238.119c.204 0 .374-.323.374-.629 0-.289-.119-.561-.255-.68-.459-.204-1.122-.289-1.513-.289Zm6.297 0c-2.006 0-3.621 1.53-3.621 3.672 0 2.125 1.53 3.502 3.485 3.502 2.125 0 3.587-1.53 3.587-3.655 0-2.091-1.547-3.519-3.451-3.519Zm1.989 3.791c0 1.309-.46 2.873-1.955 2.873-1.496 0-2.193-1.666-2.193-3.213 0-1.87.833-2.941 1.955-2.941 1.615 0 2.193 1.836 2.193 3.281Zm3.728 1.241c0 1.224-.017 1.377-.646 1.479l-.323.051c-.119.085-.085.374.034.425.442-.034.952-.051 1.564-.051.595 0 1.088.017 1.887.051.12-.051.153-.34.034-.425l-.612-.051c-.646-.051-.68-.255-.68-1.479v-2.312c0-.578.051-1.071.221-1.309.136-.187.34-.34.612-.34.238 0 .493.102.748.272.12.068.204.119.374.119a.754.754 0 0 0 .731-.782c0-.408-.34-.68-.765-.68-.629 0-1.275.527-1.87 1.02-.034-.017-.05-.068-.05-.153v-.986c0-.068-.052-.102-.137-.119-.425.255-1.326.697-1.717.833-.085.051-.085.238-.017.306l.153.102c.46.306.46.391.46 1.054v2.975Zm9.168-2.448c.714 0 .952-.017 1.003-.119.034-.068.068-.204.068-.442 0-1.02-.952-2.023-2.414-2.023-2.04 0-3.417 1.751-3.417 3.842 0 .748.204 1.547.714 2.21.493.646 1.36 1.122 2.465 1.122.884 0 2.108-.425 2.669-1.581-.017-.153-.136-.255-.306-.204-.527.663-1.003.833-1.564.833-1.82 0-2.822-1.462-2.822-3.179 0-.425.017-.459.459-.459h3.145Zm-3.298-.51c-.12 0-.12-.051-.12-.085.018-.561.885-1.479 1.888-1.479.986 0 1.309.595 1.309 1.071 0 .221-.051.289-.102.323-.136.102-.51.17-1.768.17h-1.207Zm6.604 2.788c-.544 0-.833.374-.833.765 0 .204.068.374.289.493.153.085.969.272.969.986 0 .884-.867 1.309-1.394 1.479-.102.085-.051.357.102.408 1.19-.357 2.21-1.122 2.21-2.465 0-1.122-.748-1.666-1.343-1.666Zm-48.479 12.486c.544 0 .629.119.374.629l-4.811 9.724c.051.221.306.357.578.323l4.335-8.721c.629-1.275 1.122-2.176 1.598-2.907a.163.163 0 0 0-.119-.153c-.204.051-1.343.051-2.278.051h-2.873c-.935 0-1.53-.017-1.802-.051a17.001 17.001 0 0 1-.578 1.836.272.272 0 0 0 .357.136c.493-.816.867-.867 1.819-.867h3.4Zm11.356 1.122c-.527-1.088-.952-2.142-.884-2.805-.561.051-1.02.051-1.411.051-.425 0-.833-.017-1.343-.051-.136.068-.153.323-.068.425l.272.034c1.037.136 1.173.391 1.139 1.462-.034.935-.102 2.38-.187 3.791-.102 1.683-.187 2.618-.289 3.74-.102 1.19-.34 1.292-1.054 1.394l-.374.051c-.102.085-.068.34.034.425a30.41 30.41 0 0 1 1.734-.051c.646 0 1.309.017 1.887.051.119-.051.136-.323.017-.425l-.646-.051c-.663-.051-.765-.323-.765-1.581 0-1.445.068-2.958.119-3.995.051-.986.102-1.972.17-3.026h.034c.374.782.731 1.666 1.088 2.448l1.53 3.281c.391.833 1.207 2.499 1.496 3.4.034.051.119.068.153.068.068 0 .136-.017.17-.068.306-.782 1.071-2.38 1.836-3.876l1.513-2.975c.34-.663.986-2.023 1.105-2.21h.034l.051 7.089c0 1.088 0 1.36-.833 1.445l-.493.051c-.102.102-.085.34.034.425a44.8 44.8 0 0 1 2.057-.051c.612 0 1.309.017 2.006.051.119-.068.136-.323.034-.425l-.544-.051c-.799-.068-.782-.527-.833-1.377-.136-2.448-.153-5.593-.187-7.395-.017-1.19.119-1.513 1.19-1.615l.357-.034c.085-.068.085-.357-.017-.425a24.95 24.95 0 0 1-1.513.051c-.34 0-.697 0-1.275-.051-.034.782-.527 1.717-1.292 3.264l-1.598 3.247c-.425.867-.85 1.751-1.309 2.55h-.034c-.408-.748-.782-1.53-1.173-2.329l-1.938-3.927Zm12.638 5.678c-1.088.391-1.411.782-1.411 1.445 0 .476.204.901.527 1.19.289.255.697.391 1.19.391.476 0 .85-.221 1.224-.425.34-.187.544-.34.663-.34.102 0 .204.136.272.238.289.374.697.527 1.105.527.833 0 1.428-.663 1.428-.748 0-.119-.051-.221-.12-.221-.05 0-.135.068-.22.119a.977.977 0 0 1-.425.102c-.663 0-.816-.697-.782-1.479l.102-2.958c.05-1.275-.544-1.989-1.768-1.989-1.241 0-3.162 1.207-3.162 2.091 0 .153.085.238.238.238.255 0 .714-.119.969-.323.136-.102.153-.306.17-.578.034-.527.612-.765 1.088-.765 1.054 0 1.258.85 1.24 1.479l-.016.782c0 .255-.034.408-.29.493l-2.022.731Zm-.102 1.241c0-.663.493-.918 1.496-1.258.306-.102.595-.17.697-.17.102 0 .17.034.17.221l-.034 1.003c-.017.357-.017.595-.221.799-.17.17-.697.425-1.037.425-.867 0-1.071-.731-1.071-1.02Zm6.635-.357c0 1.224-.017 1.377-.646 1.479l-.323.051c-.12.085-.085.374.034.425.442-.034.952-.051 1.564-.051.595 0 1.088.017 1.887.051.119-.051.153-.34.034-.425l-.612-.051c-.646-.051-.68-.255-.68-1.479v-2.312c0-.578.05-1.071.22-1.309.137-.187.34-.34.613-.34.238 0 .493.102.748.272.119.068.204.119.374.119a.754.754 0 0 0 .73-.782c0-.408-.34-.68-.764-.68-.63 0-1.275.527-1.87 1.02-.034-.017-.051-.068-.051-.153v-.986c0-.068-.051-.102-.136-.119-.425.255-1.326.697-1.717.833-.085.051-.085.238-.017.306l.153.102c.459.306.459.391.459 1.054v2.975Zm8.605-5.032c-2.822 0-4.114 1.955-4.114 3.791 0 1.105.39 1.938.986 2.516.595.578 1.428.867 2.329.867.986 0 2.26-.476 2.839-1.734-.017-.153-.17-.272-.306-.238-.391.578-.901 1.02-1.887 1.02-1.82 0-2.737-1.581-2.737-2.907 0-1.802 1.156-2.737 2.346-2.737.697 0 1.326.442 1.7.901a.297.297 0 0 0 .238.119c.204 0 .374-.323.374-.629 0-.289-.12-.561-.255-.68-.46-.204-1.122-.289-1.513-.289Zm3.576 5.032c0 1.224-.017 1.411-.646 1.479l-.425.051c-.119.085-.085.374.034.425a25.66 25.66 0 0 1 3.264 0c.12-.051.153-.357.034-.425l-.357-.051c-.612-.085-.646-.255-.646-1.479v-2.856c0-.595.051-.68.357-.935a2.035 2.035 0 0 1 1.326-.459c1.088 0 1.615.731 1.615 1.819v2.431c0 1.224-.017 1.377-.646 1.479l-.34.051c-.119.085-.085.374.034.425.46-.034.97-.051 1.581-.051.595 0 1.088.017 1.7.051.12-.051.153-.34.034-.425l-.459-.051c-.612-.068-.646-.255-.646-1.479v-2.839c0-1.19-.578-2.193-2.193-2.193-.867 0-1.683.408-2.295.884-.05-.034-.068-.17-.068-.323v-3.57c0-.748.034-1.598.051-2.108a.187.187 0 0 0-.17-.102c-.612.323-1.41.578-1.836.714-.085.051-.085.289 0 .34l.17.102c.51.306.527.408.527 1.411v7.684Zm-45.037 19.83c0 1.309-.017 1.598-.731 1.649l-.697.051c-.102.102-.085.374.034.425a42.42 42.42 0 0 1 2.04-.051c.595 0 1.36.017 2.023.051.119-.051.136-.323.034-.425l-.714-.051c-.697-.051-.731-.34-.731-1.649v-6.596c0-.969.034-1.819.068-2.125a.21.21 0 0 0-.17-.085c-.442.289-1.377.731-2.805.986-.136.068-.119.306.017.374l.816.068c.765.068.816.442.816 1.598v5.78Zm8.823-8.296c1.649 0 2.091 2.142 2.091 3.689 0 3.213-1.054 4.964-2.618 6.12-.646.476-1.496.884-2.516 1.19-.085.085-.034.34.102.391 1.139-.204 2.788-.833 4.046-1.955 1.734-1.547 2.499-3.757 2.499-5.61 0-2.499-1.258-4.335-3.383-4.335-1.938 0-3.485 1.428-3.485 3.468 0 1.768 1.207 2.873 2.584 2.873.663 0 1.19-.204 1.53-.493.034-.068.017-.17-.051-.204-.204.051-.323.068-.748.068-1.292 0-1.955-1.53-1.955-2.856 0-1.513.816-2.346 1.904-2.346Zm8.908-.51c-1.734 0-3.145 1.02-3.128 2.754.017 1.309.952 2.125 1.938 2.669-1.122.714-2.295 1.581-2.295 2.856 0 2.074 1.632 2.839 3.145 2.839 1.989 0 3.4-1.088 3.4-2.89 0-1.615-1.071-2.499-2.244-3.162.85-.561 2.006-1.19 2.006-2.584 0-1.632-1.309-2.482-2.822-2.482Zm-.17 10.608c-1.258 0-2.091-1.054-2.091-2.482 0-.731.425-1.649 1.547-2.414 1.241.561 2.516 1.496 2.516 2.839 0 1.241-.765 2.057-1.972 2.057Zm.051-10.098c1.088 0 1.802.969 1.802 2.006 0 .969-.578 1.734-1.36 2.295-1.071-.527-2.227-1.241-2.227-2.414 0-.986.612-1.887 1.785-1.887Zm4.828 6.358c0 2.312 1.173 4.25 3.655 4.25 2.125 0 3.587-1.564 3.587-3.553 0-1.734-1.071-3.043-2.703-3.043-.663 0-1.173.204-1.666.51-.068.102-.051.221.051.272.17-.051.442-.136.782-.136 1.445 0 2.091 1.394 2.091 2.839s-.646 2.601-1.921 2.601c-1.683 0-2.363-1.819-2.363-3.791 0-1.751.493-3.621 1.938-5.151 1.224-1.309 2.686-1.802 3.774-2.176.085-.085.051-.306-.068-.357-1.037.136-3.111.68-4.879 2.414a7.474 7.474 0 0 0-2.278 5.321Z" fill="#F9C350"/></svg>