<svg xmlns="http://www.w3.org/2000/svg" width="200" height="200" viewBox="0 0 200 200">
  <!-- 背景 -->
  <defs>
    <linearGradient id="bg-gradient" x1="0%" y1="0%" x2="100%" y2="100%">
      <stop offset="0%" style="stop-color:#232f3e;stop-opacity:1" />
      <stop offset="100%" style="stop-color:#37475a;stop-opacity:1" />
    </linearGradient>
  </defs>
  <rect width="200" height="200" rx="20" ry="20" fill="url(#bg-gradient)"/>
  <rect x="5" y="5" width="190" height="190" rx="15" ry="15" fill="none" stroke="#4a5568" stroke-width="2"/>

  <!-- L -->
  <path d="M45 50 v70 h40" fill="none" stroke="#ff9900" stroke-width="8" stroke-linecap="round" stroke-linejoin="round"/>
  
  <!-- y -->
  <path d="M95 60 v40 q0 20 15 20 M110 60 v40 q0 20 -15 20" fill="none" stroke="#ff9900" stroke-width="8" stroke-linecap="round" stroke-linejoin="round"/>
  
  <!-- z -->
  <path d="M125 60 h35 l-35 50 h35" fill="none" stroke="#ff9900" stroke-width="8" stroke-linecap="round" stroke-linejoin="round"/>
  
  <!-- 微调 -->
  <path d="M45 50 h5 M80 120 v5 M95 60 h5 M110 60 h5 M125 60 h5 M125 110 h5 M160 60 h5" stroke="#ff9900" stroke-width="4" stroke-linecap="round"/>
</svg>